<?xml version="1.0" standalone="no"?>
<!DOCTYPE svg PUBLIC "-//W3C//DTD SVG 20010904//EN"
 "http://www.w3.org/TR/2001/REC-SVG-20010904/DTD/svg10.dtd">
<svg version="1.0" xmlns="http://www.w3.org/2000/svg"
 width="512.000000pt" height="512.000000pt" viewBox="0 0 512.000000 512.000000"
 preserveAspectRatio="xMidYMid meet">

<g transform="translate(0.000000,512.000000) scale(0.100000,-0.100000)"
fill="#000000" stroke="none">
<path d="M1220 5065 c-227 -46 -409 -169 -533 -361 -115 -177 -154 -378 -118
-594 30 -174 138 -447 270 -683 39 -70 71 -130 71 -132 0 -3 -49 -5 -110 -5
-116 0 -151 -9 -169 -44 -10 -21 -631 -3116 -631 -3149 0 -10 11 -29 25 -42
l24 -25 2511 0 2511 0 24 25 c14 13 25 32 25 42 0 10 -140 720 -312 1578 -298
1492 -313 1561 -339 1588 l-27 27 -1306 0 -1305 0 51 88 c122 211 228 453 275
629 23 85 27 119 27 253 1 177 -14 243 -85 381 -165 317 -532 494 -879 424z
m272 -139 c302 -58 521 -303 544 -608 20 -260 -138 -652 -451 -1123 -168 -252
-204 -299 -220 -285 -7 6 -62 82 -123 168 -274 392 -459 760 -511 1019 -38
184 -23 324 50 473 34 69 58 101 128 170 166 165 365 228 583 186z m-413
-1887 c34 -50 61 -91 59 -93 -1 -1 -15 -8 -30 -15 -206 -104 -207 -367 -2
-483 30 -16 54 -31 54 -33 0 -1 -15 -35 -34 -76 -79 -173 -116 -357 -96 -485
31 -203 184 -352 410 -400 160 -34 298 -1 525 126 77 43 164 86 193 95 70 23
151 17 223 -17 115 -52 176 -138 219 -303 56 -217 182 -351 367 -390 37 -8 87
-15 111 -15 71 0 188 29 285 71 183 79 291 97 388 64 45 -16 179 -108 179
-124 0 -5 -14 -14 -31 -22 -17 -7 -53 -34 -79 -60 -198 -198 2 -489 335 -489
85 0 208 26 266 55 47 25 118 94 140 138 78 152 -18 333 -211 398 -43 14 -97
23 -160 25 l-94 4 -71 69 c-133 131 -230 176 -375 176 -82 -1 -107 -5 -185
-34 -250 -91 -289 -103 -364 -108 -91 -6 -142 6 -208 50 -68 45 -107 110 -149
246 -20 64 -47 140 -61 169 -82 175 -320 299 -505 262 -81 -15 -135 -39 -286
-123 -163 -92 -235 -117 -337 -117 -91 0 -193 31 -260 78 -91 63 -129 184
-107 338 13 90 63 243 103 316 l24 43 90 6 c137 9 214 39 298 117 130 122 128
288 -5 393 -27 21 -53 39 -56 39 -4 0 -13 4 -21 9 -10 7 1 29 48 100 l62 91
374 0 375 0 0 -310 0 -310 -289 0 c-267 0 -291 -1 -312 -19 -17 -13 -23 -29
-23 -56 0 -27 6 -43 23 -56 21 -18 45 -19 312 -19 l289 0 0 -196 0 -196 29
-29 c32 -32 47 -35 84 -18 42 19 47 48 47 249 l0 190 445 0 c245 0 445 -3 445
-7 0 -5 14 -136 30 -292 17 -157 30 -295 30 -308 l0 -23 -355 0 c-352 0 -354
0 -375 -22 -29 -32 -27 -81 6 -107 26 -20 38 -21 384 -21 l357 0 7 -46 c3 -26
6 -59 6 -74 0 -45 35 -80 79 -80 61 0 76 25 74 121 l-3 79 449 0 448 0 137
-683 c75 -375 136 -690 136 -699 0 -17 -61 -18 -1150 -18 l-1150 0 0 356 c0
363 -2 383 -39 411 -12 9 -153 12 -585 13 l-569 0 7 63 c3 34 9 101 13 150 6
82 5 89 -17 112 -31 33 -73 33 -105 0 -14 -13 -25 -30 -25 -37 0 -7 -7 -71
-15 -143 -8 -71 -15 -133 -15 -137 0 -5 -216 -8 -480 -8 -264 0 -480 4 -480 8
0 4 27 143 60 307 33 164 60 300 60 302 0 2 97 3 215 3 216 0 216 0 240 25 31
30 33 77 5 105 -19 19 -33 20 -218 20 -109 0 -201 2 -204 5 -4 4 120 636 263
1343 l10 52 128 0 127 0 63 -91z m2371 89 c0 -2 14 -131 30 -288 16 -157 30
-295 30 -307 l0 -23 -435 0 -435 0 0 310 0 310 405 0 c223 0 405 -1 405 -2z
m964 -285 c32 -159 60 -298 63 -310 l5 -23 -405 0 -406 0 -5 43 c-10 73 -56
528 -56 553 l0 24 374 0 373 0 57 -287z m-3137 -78 c67 -97 117 -98 190 -5 25
33 48 60 51 60 3 0 24 -11 47 -25 53 -30 75 -64 75 -111 0 -30 -7 -44 -39 -75
-55 -51 -125 -74 -231 -72 -127 1 -222 44 -257 117 -22 47 1 96 63 136 27 16
51 30 55 30 4 0 25 -25 46 -55z m3238 -427 c16 -69 115 -575 115 -590 0 -17
-23 -18 -440 -18 -242 0 -440 1 -440 3 0 1 -14 130 -30 286 -17 157 -30 297
-30 313 l0 28 410 0 410 0 5 -22z m-222 -1505 c41 -11 72 -28 98 -53 33 -32
39 -43 39 -80 0 -88 -112 -153 -265 -153 -187 0 -305 96 -250 203 43 84 229
125 378 83z m-3023 -57 c0 -13 -13 -151 -30 -306 -16 -155 -30 -284 -30 -286
0 -6 -1026 -5 -1032 1 -3 3 22 142 56 310 l61 305 487 0 488 0 0 -24z m1210
-286 l0 -310 -555 0 -555 0 0 24 c0 25 46 480 56 554 l5 42 525 0 524 0 0
-310z"/>
<path d="M1253 4616 c-175 -57 -281 -240 -243 -421 22 -105 83 -193 171 -248
91 -56 248 -61 357 -12 275 124 277 528 4 662 -48 23 -71 28 -152 30 -61 2
-110 -2 -137 -11z m245 -170 c103 -71 122 -229 39 -323 -85 -97 -239 -97 -324
0 -63 72 -70 178 -17 263 43 70 98 96 190 92 59 -3 78 -8 112 -32z"/>
<path d="M1445 2255 c-14 -13 -25 -30 -25 -36 0 -7 -9 -100 -21 -207 -18 -179
-19 -196 -4 -218 18 -28 59 -47 85 -39 44 14 53 40 71 212 26 240 25 267 -7
292 -35 28 -69 26 -99 -4z"/>
</g>
</svg>
