<?xml version="1.0" encoding="UTF-8" standalone="no" ?>
<!DOCTYPE svg PUBLIC "-//W3C//DTD SVG 1.1//EN" "http://www.w3.org/Graphics/SVG/1.1/DTD/svg11.dtd">
<svg xmlns="http://www.w3.org/2000/svg" xmlns:xlink="http://www.w3.org/1999/xlink" version="1.1" width="1080" height="1080" viewBox="0 0 1080 1080" xml:space="preserve">
<desc>Created with Fabric.js 5.2.4</desc>
<defs>
</defs>
<g transform="matrix(1 0 0 1 540 540)" id="d572cf5e-e3f9-4cfb-9e61-1317934ec3a6"  >
<rect style="stroke: none; stroke-width: 1; stroke-dasharray: none; stroke-linecap: butt; stroke-dashoffset: 0; stroke-linejoin: miter; stroke-miterlimit: 4; fill: rgb(255,255,255); fill-rule: nonzero; opacity: 1; visibility: hidden;" vector-effect="non-scaling-stroke"  x="-540" y="-540" rx="0" ry="0" width="1080" height="1080" />
</g>
<g transform="matrix(1 0 0 1 540 540)" id="44d4479d-91b7-4ced-8546-5f79280cd4ae"  >
</g>
<g transform="matrix(1 0 0 1 540 540)"  >
<g style="" vector-effect="non-scaling-stroke"   >
		<g transform="matrix(0.13 0 0 -0.13 0 0)"  >
<path style="stroke: none; stroke-width: 1; stroke-dasharray: none; stroke-linecap: butt; stroke-dashoffset: 0; stroke-linejoin: miter; stroke-miterlimit: 4; fill: rgb(255,111,97); fill-rule: nonzero; opacity: 1;" vector-effect="non-scaling-stroke"  transform=" translate(-2560, -2555.1)" d="M 1220 5065 C 993 5019 811 4896 687 4704 C 572 4527 533 4326 569 4110 C 599 3936 707 3663 839 3427 C 878 3357 910 3297 910 3295 C 910 3292 861 3290 800 3290 C 684 3290 649 3281 631 3246 C 621 3225 0 130 0 97 C 0 87 11 68 25 55 L 49 30 L 2560 30 L 5071 30 L 5095 55 C 5109 68 5120 87 5120 97 C 5120 107 4980 817 4808 1675 C 4510 3167 4495 3236 4469 3263 L 4442 3290 L 3136 3290 L 1831 3290 L 1882 3378 C 2004 3589 2110 3831 2157 4007 C 2180 4092 2184 4126 2184 4260 C 2185 4437 2170 4503 2099 4641 C 1934 4958 1567 5135 1220 5065 z M 1492 4926 C 1794 4868 2013 4623 2036 4318 C 2056 4058 1898 3666 1585 3195 C 1417 2943 1381 2896 1365 2910 C 1358 2916 1303 2992 1242 3078 C 968 3470 783 3838 731 4097 C 693 4281 708 4421 781 4570 C 815 4639 839 4671 909 4740 C 1075 4905 1274 4968 1492 4926 z M 1079 3039 C 1113 2989 1140 2948 1138 2946 C 1137 2945 1123 2938 1108 2931 C 902 2827 901 2564 1106 2448 C 1136 2432 1160 2417 1160 2415 C 1160 2414 1145 2380 1126 2339 C 1047 2166 1010 1982 1030 1854 C 1061 1651 1214 1502 1440 1454 C 1600 1420 1738 1453 1965 1580 C 2042 1623 2129 1666 2158 1675 C 2228 1698 2309 1692 2381 1658 C 2496 1606 2557 1520 2600 1355 C 2656 1138 2782 1004 2967 965 C 3004 957 3054 950 3078 950 C 3149 950 3266 979 3363 1021 C 3546 1100 3654 1118 3751 1085 C 3796 1069 3930 977 3930 961 C 3930 956 3916 947 3899 939 C 3882 932 3846 905 3820 879 C 3622 681 3822 390 4155 390 C 4240 390 4363 416 4421 445 C 4468 470 4539 539 4561 583 C 4639 735 4543 916 4350 981 C 4307 995 4253 1004 4190 1006 L 4096 1010 L 4025 1079 C 3892 1210 3795 1255 3650 1255 C 3568 1254 3543 1250 3465 1221 C 3215 1130 3176 1118 3101 1113 C 3010 1107 2959 1119 2893 1163 C 2825 1208 2786 1273 2744 1409 C 2724 1473 2697 1549 2683 1578 C 2601 1753 2363 1877 2178 1840 C 2097 1825 2043 1801 1892 1717 C 1729 1625 1657 1600 1555 1600 C 1464 1600 1362 1631 1295 1678 C 1204 1741 1166 1862 1188 2016 C 1201 2106 1251 2259 1291 2332 L 1315 2375 L 1405 2381 C 1542 2390 1619 2420 1703 2498 C 1833 2620 1831 2786 1698 2891 C 1671 2912 1645 2930 1642 2930 C 1638 2930 1629 2934 1621 2939 C 1611 2946 1622 2968 1669 3039 L 1731 3130 L 2105 3130 L 2480 3130 L 2480 2820 L 2480 2510 L 2191 2510 C 1924 2510 1900 2509 1879 2491 C 1862 2478 1856 2462 1856 2435 C 1856 2408 1862 2392 1879 2379 C 1900 2361 1924 2360 2191 2360 L 2480 2360 L 2480 2164 L 2480 1968 L 2509 1939 C 2541 1907 2556 1904 2593 1921 C 2635 1940 2640 1969 2640 2170 L 2640 2360 L 3085 2360 C 3330 2360 3530 2357 3530 2353 C 3530 2348 3544 2217 3560 2061 C 3577 1904 3590 1766 3590 1753 L 3590 1730 L 3235 1730 C 2883 1730 2881 1730 2860 1708 C 2831 1676 2833 1627 2866 1601 C 2892 1581 2904 1580 3250 1580 L 3607 1580 L 3614 1534 C 3617 1508 3620 1475 3620 1460 C 3620 1415 3655 1380 3699 1380 C 3760 1380 3775 1405 3773 1501 L 3770 1580 L 4219 1580 L 4667 1580 L 4804 897 C 4879 522 4940 207 4940 198 C 4940 181 4879 180 3790 180 L 2640 180 L 2640 536 C 2640 899 2638 919 2601 947 C 2589 956 2448 959 2016 960 L 1447 960 L 1454 1023 C 1457 1057 1463 1124 1467 1173 C 1473 1255 1472 1262 1450 1285 C 1419 1318 1377 1318 1345 1285 C 1331 1272 1320 1255 1320 1248 C 1320 1241 1313 1177 1305 1105 C 1297 1034 1290 972 1290 968 C 1290 963 1074 960 810 960 C 546 960 330 964 330 968 C 330 972 357 1111 390 1275 C 423 1439 450 1575 450 1577 C 450 1579 547 1580 665 1580 C 881 1580 881 1580 905 1605 C 936 1635 938 1682 910 1710 C 891 1729 877 1730 692 1730 C 583 1730 491 1732 488 1735 C 484 1739 608 2371 751 3078 L 761 3130 L 889 3130 L 1016 3130 L 1079 3039 z M 3450 3128 C 3450 3126 3464 2997 3480 2840 C 3496 2683 3510 2545 3510 2533 L 3510 2510 L 3075 2510 L 2640 2510 L 2640 2820 L 2640 3130 L 3045 3130 C 3268 3130 3450 3129 3450 3128 z M 4414 2843 C 4446 2684 4474 2545 4477 2533 L 4482 2510 L 4077 2510 L 3671 2510 L 3666 2553 C 3656 2626 3610 3081 3610 3106 L 3610 3130 L 3984 3130 L 4357 3130 L 4414 2843 z M 1277 2765 C 1344 2668 1394 2667 1467 2760 C 1492 2793 1515 2820 1518 2820 C 1521 2820 1542 2809 1565 2795 C 1618 2765 1640 2731 1640 2684 C 1640 2654 1633 2640 1601 2609 C 1546 2558 1476 2535 1370 2537 C 1243 2538 1148 2581 1113 2654 C 1091 2701 1114 2750 1176 2790 C 1203 2806 1227 2820 1231 2820 C 1235 2820 1256 2795 1277 2765 z M 4515 2338 C 4531 2269 4630 1763 4630 1748 C 4630 1731 4607 1730 4190 1730 C 3948 1730 3750 1731 3750 1733 C 3750 1734 3736 1863 3720 2019 C 3703 2176 3690 2316 3690 2332 L 3690 2360 L 4100 2360 L 4510 2360 L 4515 2338 z M 4293 833 C 4334 822 4365 805 4391 780 C 4424 748 4430 737 4430 700 C 4430 612 4318 547 4165 547 C 3978 547 3860 643 3915 750 C 3958 834 4144 875 4293 833 z M 1270 776 C 1270 763 1257 625 1240 470 C 1224 315 1210 186 1210 184 C 1210 178 184 179 178 185 C 175 188 200 327 234 495 L 295 800 L 782 800 L 1270 800 L 1270 776 z M 2480 490 L 2480 180 L 1925 180 L 1370 180 L 1370 204 C 1370 229 1416 684 1426 758 L 1431 800 L 1956 800 L 2480 800 L 2480 490 z" stroke-linecap="round" />
</g>
		<g transform="matrix(0.13 0 0 -0.13 -158.15 -227.91)"  >
<path style="stroke: none; stroke-width: 1; stroke-dasharray: none; stroke-linecap: butt; stroke-dashoffset: 0; stroke-linejoin: miter; stroke-miterlimit: 4; fill: rgb(255,111,97); fill-rule: nonzero; opacity: 1;" vector-effect="non-scaling-stroke"  transform=" translate(-1373.9, -4264.44)" d="M 1253 4616 C 1078 4559 972 4376 1010 4195 C 1032 4090 1093 4002 1181 3947 C 1272 3891 1429 3886 1538 3935 C 1813 4059 1815 4463 1542 4597 C 1494 4620 1471 4625 1390 4627 C 1329 4629 1280 4625 1253 4616 z M 1498 4446 C 1601 4375 1620 4217 1537 4123 C 1452 4026 1298 4026 1213 4123 C 1150 4195 1143 4301 1196 4386 C 1239 4456 1294 4482 1386 4478 C 1445 4475 1464 4470 1498 4446 z" stroke-linecap="round" />
</g>
		<g transform="matrix(0.13 0 0 -0.13 -144.41 71.88)"  >
<path style="stroke: none; stroke-width: 1; stroke-dasharray: none; stroke-linecap: butt; stroke-dashoffset: 0; stroke-linejoin: miter; stroke-miterlimit: 4; fill: rgb(255,111,97); fill-rule: nonzero; opacity: 1;" vector-effect="non-scaling-stroke"  transform=" translate(-1476.95, -2015.98)" d="M 1445 2255 C 1431 2242 1420 2225 1420 2219 C 1420 2212 1411 2119 1399 2012 C 1381 1833 1380 1816 1395 1794 C 1413 1766 1454 1747 1480 1755 C 1524 1769 1533 1795 1551 1967 C 1577 2207 1576 2234 1544 2259 C 1509 2287 1475 2285 1445 2255 z" stroke-linecap="round" />
</g>
</g>
</g>
<g transform="matrix(NaN NaN NaN NaN 0 0)"  >
<g style=""   >
</g>
</g>
<g transform="matrix(NaN NaN NaN NaN 0 0)"  >
<g style=""   >
</g>
</g>
</svg>